<?xml version="1.0" encoding="utf-8"?>
<!-- Generator: Adobe Illustrator 24.0.0, SVG Export Plug-In . SVG Version: 6.00 Build 0)  -->
<svg version="1.1" id="Layer_1" xmlns="http://www.w3.org/2000/svg" xmlns:xlink="http://www.w3.org/1999/xlink" x="0px" y="0px"
	 viewBox="0 0 256 256" style="enable-background:new 0 0 256 256;" xml:space="preserve">
<g>
	<g>
		<path d="M82.8,234.8h42v-91.4c-23.3,1.1-42,18.1-42,47.2V234.8z"/>
		<path d="M183.6,106c0,13.9-5.4,27.1-15.3,36.9c-7.1,7.1-11,16.5-11,26.5v43.3h92.4V96.2c0-36.9-29.5-67.1-66.1-68.2V106z"/>
		<path d="M77.1,50C35.6,56.2,3.7,92,3.7,135.2h14.8c0-22,17.9-39.9,39.9-39.9h18.7C77.1,95.3,77.1,50,77.1,50z"/>
	</g>
	<rect x="99.2" y="50" width="46.4" height="46.4"/>
</g>
</svg>
