<svg id="Layer" enable-background="new 0 0 64 64" height="512" viewBox="0 0 64 64" width="512" xmlns="http://www.w3.org/2000/svg"><path d="m11 56h7c1.104 0 2-.896 2-2s-.896-2-2-2h-6v-4h5c1.654 0 3-1.346 3-3v-6c0-1.654-1.346-3-3-3h-7c-1.104 0-2 .896-2 2s.896 2 2 2h6v4h-5c-1.654 0-3 1.346-3 3v6c0 1.654 1.346 3 3 3z"/><path d="m10 28h4 4c1.104 0 2-.896 2-2s-.896-2-2-2h-2v-14c0-1.104-.896-2-2-2h-3c-1.104 0-2 .896-2 2s.896 2 2 2h1v12h-2c-1.104 0-2 .896-2 2s.896 2 2 2z"/><path d="m29.5 22h21c3.032 0 5.5-2.467 5.5-5.5s-2.468-5.5-5.5-5.5h-21c-3.032 0-5.5 2.467-5.5 5.5s2.468 5.5 5.5 5.5zm0-7h21c.827 0 1.5.673 1.5 1.5s-.673 1.5-1.5 1.5h-21c-.827 0-1.5-.673-1.5-1.5s.673-1.5 1.5-1.5z"/><path d="m50.5 39h-21c-3.032 0-5.5 2.467-5.5 5.5s2.468 5.5 5.5 5.5h21c3.032 0 5.5-2.467 5.5-5.5s-2.468-5.5-5.5-5.5zm0 7h-21c-.827 0-1.5-.673-1.5-1.5s.673-1.5 1.5-1.5h21c.827 0 1.5.673 1.5 1.5s-.673 1.5-1.5 1.5z"/></svg>