<svg id="Layer_2" data-name="Layer 2" xmlns="http://www.w3.org/2000/svg" viewBox="0 0 426 336"><defs><style>.cls-1{fill:none;}.cls-2{fill:#0e4a82;}</style></defs><title>pattern</title><polygon class="cls-1" points="426 276.99 82.93 0 59.82 0 426 295.65 426 276.99"/><polygon class="cls-1" points="426 336 426 323.21 25.68 0 2.57 0 418.73 336 426 336"/><polygon class="cls-1" points="355.96 336 0 48.6 0 67.26 332.86 336 355.96 336"/><polygon class="cls-1" points="384.59 336 0 25.49 0 44.15 361.48 336 384.59 336"/><polygon class="cls-1" points="426 253.88 111.55 0 88.44 0 426 272.54 426 253.88"/><polygon class="cls-1" points="413.21 336 0 2.38 0 21.03 390.1 336 413.21 336"/><polygon class="cls-1" points="426 300.1 54.3 0 31.2 0 426 318.76 426 300.1"/><polygon class="cls-1" points="426 138.33 254.67 0 231.56 0 426 156.98 426 138.33"/><polygon class="cls-1" points="426 230.77 140.18 0 117.07 0 426 249.43 426 230.77"/><polygon class="cls-1" points="426 161.44 226.05 0 202.94 0 426 180.09 426 161.44"/><polygon class="cls-1" points="426 207.66 168.8 0 145.69 0 426 226.32 426 207.66"/><polygon class="cls-1" points="426 184.55 197.42 0 174.32 0 426 203.21 426 184.55"/><polygon class="cls-1" points="298.71 336 0 94.82 0 113.48 275.61 336 298.71 336"/><polygon class="cls-1" points="327.34 336 0 71.71 0 90.37 304.23 336 327.34 336"/><polygon class="cls-1" points="98.34 336 0 256.6 0 275.25 75.24 336 98.34 336"/><polygon class="cls-1" points="126.97 336 0 233.49 0 252.14 103.86 336 126.97 336"/><polygon class="cls-1" points="41.1 336 0 302.82 0 321.48 17.99 336 41.1 336"/><polygon class="cls-1" points="0 325.93 0 336 12.47 336 0 325.93"/><polygon class="cls-1" points="69.72 336 0 279.71 0 298.36 46.61 336 69.72 336"/><polygon class="cls-1" points="241.47 336 0 141.04 0 159.7 218.36 336 241.47 336"/><polygon class="cls-1" points="426 115.22 283.3 0 260.19 0 426 133.87 426 115.22"/><polygon class="cls-1" points="212.84 336 0 164.15 0 182.81 189.74 336 212.84 336"/><polygon class="cls-1" points="155.59 336 0 210.38 0 229.03 132.49 336 155.59 336"/><polygon class="cls-1" points="184.22 336 0 187.26 0 205.92 161.11 336 184.22 336"/><polygon class="cls-1" points="270.09 336 0 117.93 0 136.59 246.98 336 270.09 336"/><polygon class="cls-1" points="426 92.11 311.92 0 288.81 0 426 110.76 426 92.11"/><polygon class="cls-1" points="426 45.88 369.17 0 346.06 0 426 64.54 426 45.88"/><polygon class="cls-1" points="426 22.77 397.79 0 374.69 0 426 41.43 426 22.77"/><polygon class="cls-1" points="426 0 403.31 0 426 18.32 426 0"/><polygon class="cls-1" points="426 69 340.55 0 317.44 0 426 87.65 426 69"/><polygon class="cls-2" points="426 18.32 403.31 0 397.79 0 426 22.77 426 18.32"/><polygon class="cls-2" points="426 41.43 374.69 0 369.17 0 426 45.88 426 41.43"/><polygon class="cls-2" points="426 64.54 346.06 0 340.55 0 426 69 426 64.54"/><polygon class="cls-2" points="426 87.65 317.44 0 311.92 0 426 92.11 426 87.65"/><polygon class="cls-2" points="426 110.76 288.81 0 283.3 0 426 115.22 426 110.76"/><polygon class="cls-2" points="426 133.87 260.19 0 254.67 0 426 138.33 426 133.87"/><polygon class="cls-2" points="426 156.98 231.56 0 226.05 0 426 161.44 426 156.98"/><polygon class="cls-2" points="426 180.09 202.94 0 197.42 0 426 184.55 426 180.09"/><polygon class="cls-2" points="426 203.21 174.32 0 168.8 0 426 207.66 426 203.21"/><polygon class="cls-2" points="426 226.32 145.69 0 140.18 0 426 230.77 426 226.32"/><polygon class="cls-2" points="426 249.43 117.07 0 111.55 0 426 253.88 426 249.43"/><polygon class="cls-2" points="426 272.54 88.44 0 82.93 0 426 276.99 426 272.54"/><polygon class="cls-2" points="426 295.65 59.82 0 54.3 0 426 300.1 426 295.65"/><polygon class="cls-2" points="426 318.76 31.2 0 25.68 0 426 323.21 426 318.76"/><polygon class="cls-2" points="418.73 336 2.57 0 0 0 0 2.38 413.21 336 418.73 336"/><polygon class="cls-2" points="390.1 336 0 21.03 0 25.49 384.59 336 390.1 336"/><polygon class="cls-2" points="361.48 336 0 44.15 0 48.6 355.96 336 361.48 336"/><polygon class="cls-2" points="332.86 336 0 67.26 0 71.71 327.34 336 332.86 336"/><polygon class="cls-2" points="304.23 336 0 90.37 0 94.82 298.71 336 304.23 336"/><polygon class="cls-2" points="275.61 336 0 113.48 0 117.93 270.09 336 275.61 336"/><polygon class="cls-2" points="246.98 336 0 136.59 0 141.04 241.47 336 246.98 336"/><polygon class="cls-2" points="218.36 336 0 159.7 0 164.15 212.84 336 218.36 336"/><polygon class="cls-2" points="189.74 336 0 182.81 0 187.26 184.22 336 189.74 336"/><polygon class="cls-2" points="161.11 336 0 205.92 0 210.38 155.59 336 161.11 336"/><polygon class="cls-2" points="132.49 336 0 229.03 0 233.49 126.97 336 132.49 336"/><polygon class="cls-2" points="103.86 336 0 252.14 0 256.6 98.34 336 103.86 336"/><polygon class="cls-2" points="75.24 336 0 275.25 0 279.71 69.72 336 75.24 336"/><polygon class="cls-2" points="46.61 336 0 298.36 0 302.82 41.1 336 46.61 336"/><polygon class="cls-2" points="17.99 336 0 321.48 0 325.93 12.47 336 17.99 336"/></svg>